<svg width="45" height="40" viewBox="0 0 45 40" fill="none" xmlns="http://www.w3.org/2000/svg">
<g clip-path="url(#clip0_909_129)">
<path d="M22.2343 39.9999C9.97854 40.0226 0 30.0418 0 17.77C0.00637938 14.6758 0.655368 11.6168 1.90573 8.78737C3.15609 5.9579 4.98048 3.41984 7.26297 1.33444C9.82893 -1.01051 13.9414 -0.149881 15.3975 3.00866C15.855 4.0076 15.9836 5.12634 15.7648 6.20328C15.5459 7.28021 14.9908 8.25959 14.1798 8.99994C12.43 10.6075 11.202 12.7039 10.6545 15.0178C10.1071 17.3318 10.2654 19.757 11.109 21.9799C11.9526 24.2029 13.4426 26.1212 15.3865 27.487C17.3304 28.8528 19.6387 29.6033 22.0129 29.6413C24.3872 29.6793 26.7183 29.0032 28.7048 27.7003C30.6912 26.3974 32.2418 24.5277 33.1559 22.3329C34.07 20.1382 34.3056 17.7193 33.8323 15.3889C33.359 13.0586 32.1986 10.9241 30.501 9.26127C29.7166 8.49464 29.1968 7.4974 29.0172 6.41458C28.8376 5.33175 29.0076 4.21978 29.5025 3.24036C29.868 2.51516 30.399 1.88638 31.0524 1.40494C31.7057 0.923513 32.4632 0.602971 33.2633 0.469283C34.0634 0.335594 34.8837 0.392517 35.6578 0.635443C36.4319 0.878368 37.1379 1.30046 37.7188 1.86754C40.8684 4.95564 43.0292 8.91251 43.926 13.2344C44.8229 17.5563 44.4152 22.0477 42.7549 26.1368C41.0946 30.226 38.2568 33.7278 34.6028 36.1966C30.9488 38.6653 26.6438 39.9893 22.236 39.9999H22.2343Z" fill="url(#paint0_linear_909_129)"/>
<path d="M39.1018 17.6324C39.1107 14.5155 38.2564 11.4571 36.634 8.79707C35.0116 6.13706 32.6845 3.97963 29.9113 2.5645C29.7578 2.77895 29.6212 3.00494 29.5025 3.24046C29.0076 4.21988 28.8376 5.33185 29.0172 6.41467C29.1968 7.4975 29.7166 8.49473 30.501 9.26137C32.2038 10.9251 33.3687 13.0624 33.8451 15.3966C34.3214 17.7308 34.0872 20.1544 33.1728 22.3538C32.2584 24.5532 30.7058 26.4271 28.7161 27.733C26.7263 29.039 24.391 29.7167 22.0123 29.6786C19.6337 29.6406 17.3212 28.8884 15.3741 27.5194C13.4271 26.1505 11.9351 24.2278 11.0914 22.0003C10.2476 19.7727 10.0909 17.3428 10.6415 15.0251C11.1921 12.7073 12.4247 10.6084 14.1798 9.00004C14.9908 8.25969 15.5459 7.28031 15.7648 6.20338C15.9836 5.12644 15.855 4.0077 15.3975 3.00875C15.284 2.76698 15.1525 2.53405 15.0043 2.31189C12.2637 3.60146 9.91914 5.60448 8.21569 8.11165C6.51224 10.6188 5.51242 13.5381 5.32068 16.5645C5.12894 19.591 5.75232 22.6134 7.12569 25.3161C8.49907 28.0188 10.572 30.3025 13.128 31.9286C15.6839 33.5547 18.629 34.4635 21.6556 34.5601C24.6822 34.6568 27.6791 33.9376 30.3333 32.4778C32.9874 31.018 35.2014 28.8711 36.7439 26.2615C38.2863 23.652 39.1006 20.6754 39.1018 17.6429V17.6324Z" fill="url(#paint1_linear_909_129)"/>
<path d="M29.5303 3.34848C29.4466 3.46528 29.3688 3.58623 29.2972 3.71085C28.9328 4.65239 28.8526 5.68041 29.0666 6.6672C29.2806 7.65399 29.7794 8.55607 30.501 9.26138C32.2038 10.9251 33.3688 13.0624 33.8451 15.3966C34.3215 17.7308 34.0873 20.1544 33.1728 22.3538C32.2584 24.5532 30.7059 26.4272 28.7161 27.7331C26.7264 29.039 24.391 29.7167 22.0124 29.6787C19.6337 29.6406 17.3212 28.8884 15.3741 27.5194C13.4271 26.1505 11.9351 24.2278 11.0914 22.0003C10.2477 19.7727 10.0909 17.3428 10.6416 15.0251C11.1922 12.7073 12.4247 10.6084 14.1798 9.00005C14.9254 8.31794 15.4557 7.43246 15.7054 6.45251C15.9551 5.47256 15.9134 4.44089 15.5854 3.48437C15.5141 3.35371 15.4393 3.22827 15.3592 3.10632C12.0736 4.6526 9.40753 7.26727 7.79506 10.5246C6.1826 13.7819 5.71877 17.4899 6.4791 21.0449C7.23943 24.5998 9.17914 27.7923 11.9824 30.1024C14.7856 32.4126 18.2872 33.7043 21.917 33.7672C25.5467 33.8301 29.0909 32.6605 31.9723 30.4489C34.8536 28.2374 36.9025 25.114 37.7852 21.5875C38.6679 18.061 38.3325 14.3392 36.8336 11.0279C35.3347 7.7167 32.7605 5.01119 29.5303 3.35197V3.34848Z" fill="url(#paint2_linear_909_129)"/>
<path d="M29.539 19.669C29.539 19.669 30.4262 16.9826 28.8431 15.0819C27.2601 13.1812 24.5288 13.6202 23.1545 14.9826C21.7802 16.345 19.1829 16.4077 18.0696 16.5174C16.9562 16.6272 23.1389 22.2666 23.1389 22.2666C23.1389 22.2666 26.7764 23.4721 29.539 19.669Z" fill="url(#paint3_linear_909_129)"/>
<path d="M22.1073 15.9844C20.2232 14.4513 18.6889 14.3869 17.6086 14.7248C17.1 14.8919 16.6503 15.2023 16.3133 15.6188C15.9764 16.0354 15.7665 16.5403 15.7089 17.0733C15.4833 18.8587 15.9474 20.6629 17.0061 22.1171C18.0649 23.5712 19.6383 24.5654 21.4047 24.8962C23.1711 25.2271 24.997 24.8697 26.509 23.8971C28.021 22.9245 29.1049 21.4102 29.539 19.6639C26.5103 20.8067 25.3569 18.6273 22.1073 15.9844Z" fill="url(#paint4_linear_909_129)"/>
<path d="M29.539 19.669C26.5103 20.8067 25.3639 18.6237 22.1073 15.9844C22.029 15.9199 21.9507 15.8589 21.8724 15.7997C21.4601 15.7997 17.7808 15.9896 15.9872 20.0784C16.0116 20.1568 16.0394 20.2335 16.0655 20.3119C16.0916 20.3903 16.1369 20.5053 16.1751 20.5993C16.2134 20.6934 16.2412 20.7579 16.276 20.8363C16.323 20.9408 16.3717 21.0453 16.4222 21.1464C16.4552 21.2108 16.49 21.2753 16.5248 21.338C16.5857 21.4513 16.6483 21.5627 16.7161 21.6708C16.7457 21.7213 16.7788 21.7683 16.8101 21.8171C16.8866 21.9338 16.9667 22.0506 17.0502 22.1655C17.0763 22.2021 17.1041 22.237 17.1319 22.2718C17.2259 22.3938 17.3233 22.514 17.4277 22.6307L17.4903 22.7004C17.6051 22.8258 17.7217 22.9478 17.8382 23.0645L17.88 23.1028C18.0139 23.2283 18.1513 23.3485 18.2957 23.4634L18.3149 23.4791C18.468 23.5993 18.6263 23.7161 18.7915 23.8276C19.7311 24.4552 20.8075 24.8476 21.9302 24.9715C23.0528 25.0954 24.1887 24.9473 25.2422 24.5397C26.2957 24.1321 27.236 23.4768 27.9838 22.6292C28.7316 21.7815 29.2649 20.7663 29.539 19.669Z" fill="url(#paint5_linear_909_129)"/>
</g>
<defs>
<linearGradient id="paint0_linear_909_129" x1="0" y1="19.9999" x2="44.3902" y2="19.9999" gradientUnits="userSpaceOnUse">
<stop stop-color="#36D9FF"/>
<stop offset="1" stop-color="#680EE6"/>
</linearGradient>
<linearGradient id="paint1_linear_909_129" x1="3.93157" y1="18.4356" x2="62.0145" y2="18.4356" gradientUnits="userSpaceOnUse">
<stop stop-color="#36D9FF"/>
<stop offset="0.1" stop-color="#38D2FE"/>
<stop offset="0.25" stop-color="#3DBEFC"/>
<stop offset="0.44" stop-color="#459DF8"/>
<stop offset="0.64" stop-color="#506FF2"/>
<stop offset="0.87" stop-color="#5E35EB"/>
<stop offset="1" stop-color="#680EE6"/>
</linearGradient>
<linearGradient id="paint2_linear_909_129" x1="22.1943" y1="47.838" x2="22.1943" y2="-8.95814" gradientUnits="userSpaceOnUse">
<stop stop-color="#36D9FF"/>
<stop offset="1" stop-color="#680EE6"/>
</linearGradient>
<linearGradient id="paint3_linear_909_129" x1="19.1203" y1="13.9985" x2="35.379" y2="24.8014" gradientUnits="userSpaceOnUse">
<stop stop-color="#A00094"/>
<stop offset="0.18" stop-color="#AB0890"/>
<stop offset="0.5" stop-color="#C71D86"/>
<stop offset="0.91" stop-color="#F54077"/>
<stop offset="1" stop-color="#FF4873"/>
</linearGradient>
<linearGradient id="paint4_linear_909_129" x1="15.4391" y1="15.9317" x2="35" y2="28.9287" gradientUnits="userSpaceOnUse">
<stop stop-color="#FFAE00"/>
<stop offset="0.12" stop-color="#FF9415"/>
<stop offset="0.42" stop-color="#FF5549"/>
<stop offset="0.69" stop-color="#FF276F"/>
<stop offset="0.88" stop-color="#FF0B86"/>
<stop offset="1" stop-color="#FF008F"/>
</linearGradient>
<linearGradient id="paint5_linear_909_129" x1="29.2894" y1="9.75113" x2="13.9555" y2="34.0411" gradientUnits="userSpaceOnUse">
<stop stop-color="#FFAE00"/>
<stop offset="0.12" stop-color="#FF9415"/>
<stop offset="0.42" stop-color="#FF5549"/>
<stop offset="0.69" stop-color="#FF276F"/>
<stop offset="0.88" stop-color="#FF0B86"/>
<stop offset="1" stop-color="#FF008F"/>
</linearGradient>
<clipPath id="clip0_909_129">
<rect width="44.3902" height="40" fill="white"/>
</clipPath>
</defs>
</svg>
