<?xml version="1.0" encoding="utf-8"?>
<!-- Generator: Adobe Illustrator 25.0.0, SVG Export Plug-In . SVG Version: 6.00 Build 0)  -->
<svg version="1.1" id="Layer_1" xmlns="http://www.w3.org/2000/svg" xmlns:xlink="http://www.w3.org/1999/xlink" x="0px" y="0px"
	 viewBox="0 0 125 125" style="enable-background:new 0 0 125 125;" xml:space="preserve">
<style type="text/css">
	.st0{fill:#E9CF49;}
</style>
<circle class="st0" cx="62.5" cy="62.5" r="62.5"/>
<path d="M60.1,25.1l4.8-6l0-0.1l-3.8-6.6l1.9,0.1l3,5.3l0.1,0l3.8-4.8l1.8,0.1l-4.9,6l0,0.1l3.8,6.6l-1.9-0.1l-3-5.3l-0.1,0
	l-3.8,4.8L60.1,25.1z"/>
<path d="M79.3,27.6L78.9,29l-7.4-2.6l4.3-11.9l7.4,2.6l-0.5,1.3l-5.9-2.1l-1.4,3.8l5.6,2l-0.5,1.3l-5.6-2l-1.5,4.1L79.3,27.6z"/>
<path d="M90,36.8l-1.2-0.9l5.9-7.8l0,0l-9.1,5.2l-1.1-0.8l2.7-10.2l0,0l-5.9,7.8L80,29.2l7.7-10.1l1.5,1.1l-2.9,11.1l0.1,0l9.9-5.8
	l1.5,1.1L90,36.8z"/>
</svg>
