<svg xmlns="http://www.w3.org/2000/svg" xmlns:xlink="http://www.w3.org/1999/xlink" viewBox="0 0 255.17 229.6"><defs><style>.cls-1{fill:url(#linear-gradient);}.cls-2{fill:url(#linear-gradient-2);}.cls-3{fill:url(#linear-gradient-3);}.cls-4{fill:url(#linear-gradient-4);}.cls-5{fill:url(#linear-gradient-5);}.cls-6{fill:url(#linear-gradient-6);}</style><linearGradient id="linear-gradient" y1="114.8" x2="255.17" y2="114.8" gradientUnits="userSpaceOnUse"><stop offset="0" stop-color="#36d9ff"/><stop offset="1" stop-color="#680ee6"/></linearGradient><linearGradient id="linear-gradient-2" x1="22.6" y1="105.82" x2="356.48" y2="105.82" gradientUnits="userSpaceOnUse"><stop offset="0" stop-color="#36d9ff"/><stop offset="0.1" stop-color="#38d2fe"/><stop offset="0.25" stop-color="#3dbefc"/><stop offset="0.44" stop-color="#459df8"/><stop offset="0.64" stop-color="#506ff2"/><stop offset="0.87" stop-color="#5e35eb"/><stop offset="1" stop-color="#680ee6"/></linearGradient><linearGradient id="linear-gradient-3" x1="127.58" y1="274.59" x2="127.58" y2="-51.42" xlink:href="#linear-gradient"/><linearGradient id="linear-gradient-4" x1="-76.25" y1="446.23" x2="35.91" y2="446.23" gradientTransform="translate(420.59 -248.91) rotate(33.64)" gradientUnits="userSpaceOnUse"><stop offset="0" stop-color="#a00094"/><stop offset="0.18" stop-color="#ab0890"/><stop offset="0.5" stop-color="#c71d86"/><stop offset="0.91" stop-color="#f54077"/><stop offset="1" stop-color="#ff4873"/></linearGradient><linearGradient id="linear-gradient-5" x1="-87.72" y1="467.19" x2="47.22" y2="467.19" gradientTransform="translate(420.59 -248.91) rotate(33.64)" gradientUnits="userSpaceOnUse"><stop offset="0" stop-color="#ffae00"/><stop offset="0.12" stop-color="#ff9415"/><stop offset="0.42" stop-color="#ff5549"/><stop offset="0.69" stop-color="#ff276f"/><stop offset="0.88" stop-color="#ff0b86"/><stop offset="1" stop-color="#ff008f"/></linearGradient><linearGradient id="linear-gradient-6" x1="-41.09" y1="393.55" x2="-37.02" y2="558.45" xlink:href="#linear-gradient-5"/></defs><g id="Layer_2" data-name="Layer 2"><g id="OBJECTS"><path class="cls-1" d="M127.81,229.6C57.36,229.73,0,172.44,0,102A128.06,128.06,0,0,1,41.75,7.66C56.5-5.8,80.14-.86,88.51,17.27h0a29.75,29.75,0,0,1-7,34.39,68.22,68.22,0,1,0,93.82,1.5,29.61,29.61,0,0,1-5.74-34.56h0a29.69,29.69,0,0,1,47.23-7.88,127.66,127.66,0,0,1-89,218.88Z"/><path class="cls-2" d="M224.77,101.21a96.76,96.76,0,0,0-52.83-86.49,29.42,29.42,0,0,0-2.35,3.88h0a29.61,29.61,0,0,0,5.74,34.56,68.31,68.31,0,1,1-93.82-1.5,29.75,29.75,0,0,0,7-34.39h0a30.79,30.79,0,0,0-2.26-4,97.19,97.19,0,1,0,138.52,88Z"/><path class="cls-3" d="M169.75,19.22a24.62,24.62,0,0,0-1.34,2.08,29.58,29.58,0,0,0,6.92,31.86,68.31,68.31,0,1,1-93.82-1.5A29.78,29.78,0,0,0,89.59,20c-.41-.75-.84-1.47-1.3-2.17a92.39,92.39,0,1,0,81.46,1.41Z"/><path class="cls-4" d="M169.8,112.9s5.1-15.42-4-26.33S141,78.18,133.1,86s-22.83,8.18-29.23,8.81,29.14,33,29.14,33S153.92,134.73,169.8,112.9Z"/><path class="cls-5" d="M127.08,91.75c-10.83-8.8-19.65-9.17-25.86-7.23A16,16,0,0,0,90.3,98a40.51,40.51,0,0,0,79.5,14.87C152.39,119.43,145.76,106.92,127.08,91.75Z"/><path class="cls-6" d="M169.8,112.9c-17.41,6.53-24-6-42.72-21.15-.45-.37-.9-.72-1.35-1.06-2.37,0-23.52,1.09-33.83,24.56.14.45.3.89.45,1.34s.41,1.11.63,1.65.38.91.58,1.36c.27.6.55,1.2.84,1.78.19.37.39.74.59,1.1.35.65.71,1.29,1.1,1.91.17.29.36.56.54.84.44.67.9,1.34,1.38,2,.15.21.31.41.47.61.54.7,1.1,1.39,1.7,2.06l.36.4c.66.72,1.33,1.42,2,2.09l.24.22c.77.72,1.56,1.41,2.39,2.07l.11.09c.88.69,1.79,1.36,2.74,2A40.51,40.51,0,0,0,169.8,112.9Z"/></g></g></svg>