<svg id="loc" xmlns="http://www.w3.org/2000/svg" width="17.435" height="17.406" viewBox="0 0 17.435 17.406">
  <path id="loc-2" data-name="loc" d="M3.415,5.927H6.358a2.491,2.491,0,0,0,4.907,0H20.02a.415.415,0,0,0,0-.83H11.265a2.491,2.491,0,0,0-4.907,0H3.415a.415.415,0,1,0,0,.83Zm5.4-2.076a1.66,1.66,0,1,1-1.66,1.66A1.66,1.66,0,0,1,8.812,3.851ZM20.02,11.323H17.077a2.491,2.491,0,0,0-4.907,0H3.415a.415.415,0,1,0,0,.83H12.17a2.491,2.491,0,0,0,4.907,0H20.02a.415.415,0,0,0,0-.83Zm-5.4,2.076a1.66,1.66,0,1,1,1.66-1.66A1.66,1.66,0,0,1,14.623,13.4Zm5.4,4.151H11.265a2.491,2.491,0,0,0-4.907,0H3.415a.415.415,0,1,0,0,.83H6.358a2.491,2.491,0,0,0,4.907,0H20.02a.415.415,0,0,0,0-.83ZM8.812,19.625a1.66,1.66,0,1,1,1.66-1.66A1.66,1.66,0,0,1,8.812,19.625Z" transform="translate(-3 -3.035)" fill="#2e2e2e"/>
</svg>
