<svg id="Component_1_1" data-name="Component 1 – 1" xmlns="http://www.w3.org/2000/svg" width="100" height="55.514" viewBox="0 0 100 55.514">
  <g id="Group_15" data-name="Group 15">
    <path id="Path_20" data-name="Path 20" d="M225.791,121.268a2,2,0,0,0-3.578,0L212.069,144.4a22.493,22.493,0,0,1,7.469-1.181h.3l3.326-8.276c.374-.879,1.18-.879,1.554,0l4.373,10.915h-8.565s-7.12-.1-9.4,2.458a10.524,10.524,0,0,0-3.084,5.421,11.545,11.545,0,0,0-.313,2.638h6.783c0-.108-.012-.2-.012-.313,0-4.2,3.434-4.2,4.975-4.2H231.5l1.819,4.518h7.843Z" transform="translate(-141.163 -120.166)"/>
    <g id="Group_14" data-name="Group 14" transform="translate(0 0)">
      <path id="Path_21" data-name="Path 21" d="M95.192,121.262a2.012,2.012,0,0,0-3.583,0L76.225,156.373h7.737l8.6-21.437c.375-.884,1.182-.881,1.554,0l8.6,21.433h7.848Z" transform="translate(-76.225 -120.166)"/>
      <path id="Path_22" data-name="Path 22" d="M137,121.263a2.013,2.013,0,0,0-3.584,0l-4.741,10.822,3.568,8.155,2.127-5.3c.375-.884,1.182-.881,1.554,0l8.6,21.434h7.848Z" transform="translate(-102.123 -120.166)"/>
    </g>
    <path id="Path_23" data-name="Path 23" d="M183.959,124.038a3.849,3.849,0,0,1,1.082-2.716,3.588,3.588,0,0,1,2.741-1.156,3.846,3.846,0,0,1,2.791,1.1,3.956,3.956,0,0,1,0,5.539,3.842,3.842,0,0,1-2.791,1.1,3.585,3.585,0,0,1-2.741-1.156A3.845,3.845,0,0,1,183.959,124.038Zm.855,9.316,6.035-1.119v24.138h-6.035Z" transform="translate(-129.424 -120.166)"/>
  </g>
  <g id="Group_17" data-name="Group 17" transform="translate(0.561 42.019)">
    <path id="Path_24" data-name="Path 24" d="M87.583,211.188a3.2,3.2,0,0,0-.683-1.034,3.71,3.71,0,0,0-.961-.687,6.7,6.7,0,0,0-1.087-.427,9.791,9.791,0,0,0-1.06-.25q-.512-.089-.889-.179-.5-.124-1.042-.25a6.846,6.846,0,0,1-.988-.3,2.327,2.327,0,0,1-.737-.446.863.863,0,0,1-.288-.66.978.978,0,0,1,.242-.668,1.9,1.9,0,0,1,.611-.455,3.178,3.178,0,0,1,.782-.259,5.072,5.072,0,0,1,.694-.093v.006h4.9v-2.3H82.5c-.058,0-.113-.006-.175-.006-.037,0-.076.006-.113.006h-.037v0a8.856,8.856,0,0,0-1.565.171,5.055,5.055,0,0,0-1.617.615,3.392,3.392,0,0,0-1.662,3.093,3.3,3.3,0,0,0,.261,1.364,3.2,3.2,0,0,0,.691,1,4.014,4.014,0,0,0,.97.7,6.605,6.605,0,0,0,1.1.445,10.162,10.162,0,0,0,1.078.267q.521.1.917.17.592.106,1.14.232a5.293,5.293,0,0,1,.952.3,1.821,1.821,0,0,1,.646.455.976.976,0,0,1,.242.668,1.328,1.328,0,0,1-.161.615,1.617,1.617,0,0,1-.485.553,2.719,2.719,0,0,1-.79.392,3.431,3.431,0,0,1-1.067.14c-.1,0-.237,0-.3,0H77.679v2.3h4.829v0c.105,0,.232,0,.341,0a7.707,7.707,0,0,0,2.03-.25,4.731,4.731,0,0,0,1.581-.74,3.286,3.286,0,0,0,1.024-1.239,4.05,4.05,0,0,0,.359-1.765A3.821,3.821,0,0,0,87.583,211.188Z" transform="translate(-77.334 -203.174)" fill="#c720a0"/>
    <g id="Group_16" data-name="Group 16" transform="translate(13.322)">
      <path id="Path_25" data-name="Path 25" d="M103.651,209.24v7.43h3.293v-7.413h0v-.016c0-.012,0-.023,0-.034a2.773,2.773,0,0,1,5.546.034h0v7.43h3.294V209.24h0a6.066,6.066,0,1,0-12.132,0Z" transform="translate(-103.651 -203.174)" fill="#00bcb5"/>
    </g>
    <path id="Path_26" data-name="Path 26" d="M203.5,211.477l-1.423-1.694,5.935-6.49h-3.825l-5.49,6.094h-.079v-6.094h-3.169v13.435h3.169v-6.5h.079l3.055,3.955a6.188,6.188,0,0,0,4.27,2.541h1.29v-3.2S205.442,213.908,203.5,211.477Z" transform="translate(-135.661 -203.233)" fill="#00bcb5"/>
    <path id="Path_27" data-name="Path 27" d="M145.619,207.066a6.038,6.038,0,0,0-1.288-2.152,5.338,5.338,0,0,0-1.952-1.3,6.729,6.729,0,0,0-2.458-.438,7.159,7.159,0,0,0-2.67.492,6.238,6.238,0,0,0-3.56,3.533,7.32,7.32,0,0,0-.518,2.8,7.191,7.191,0,0,0,.518,2.8,5.921,5.921,0,0,0,1.435,2.085,6.447,6.447,0,0,0,2.165,1.316,7.789,7.789,0,0,0,2.737.465,7.255,7.255,0,0,0,4.911-1.812L143.2,212.8a7.261,7.261,0,0,1-1.179.829,4.25,4.25,0,0,1-2.019.438,3.74,3.74,0,0,1-1.328-.239,4.011,4.011,0,0,1-1.142-.651,3.19,3.19,0,0,1-.81-.983,3.144,3.144,0,0,1-.358-1.261,12.554,12.554,0,0,1,0-2.285,3.143,3.143,0,0,1,1.1-2.218,3.585,3.585,0,0,1,2.431-.864,3.293,3.293,0,0,1,1.341.253,2.606,2.606,0,0,1,1.488,1.66,3.934,3.934,0,0,1,.173,1.169h-5.444v2.285h8.6a3.419,3.419,0,0,0,.026-.425v-.425A8.882,8.882,0,0,0,145.619,207.066Z" transform="translate(-104.907 -203.174)" fill="#c345ff"/>
    <path id="Path_28" data-name="Path 28" d="M238.274,207.066a6.047,6.047,0,0,0-1.289-2.152,5.334,5.334,0,0,0-1.952-1.3,6.728,6.728,0,0,0-2.457-.438,7.16,7.16,0,0,0-2.67.492,6.235,6.235,0,0,0-3.56,3.533,7.321,7.321,0,0,0-.518,2.8,7.19,7.19,0,0,0,.518,2.8,5.921,5.921,0,0,0,1.435,2.085,6.436,6.436,0,0,0,2.165,1.316,7.786,7.786,0,0,0,2.736.465,7.255,7.255,0,0,0,4.911-1.812l-1.739-2.058a7.26,7.26,0,0,1-1.178.829,4.251,4.251,0,0,1-2.019.438,3.74,3.74,0,0,1-1.328-.239,4.014,4.014,0,0,1-1.143-.651,3.182,3.182,0,0,1-.81-.983,3.144,3.144,0,0,1-.359-1.261,12.608,12.608,0,0,1,0-2.285,3.146,3.146,0,0,1,1.1-2.218,3.586,3.586,0,0,1,2.431-.864,3.291,3.291,0,0,1,1.341.253,2.606,2.606,0,0,1,1.488,1.66,3.935,3.935,0,0,1,.173,1.169h-5.444v2.285h8.6a3.423,3.423,0,0,0,.027-.425v-.425A8.9,8.9,0,0,0,238.274,207.066Z" transform="translate(-150.66 -203.174)" fill="#c345ff"/>
    <path id="Path_29" data-name="Path 29" d="M264.671,203.193c-.456-.008-1.081-.019-1.715-.019a6.065,6.065,0,0,0-6.065,6.066v7.43h3.293v-7.43h0a2.775,2.775,0,0,1,2.775-2.775c.033,0,1.715,0,1.715-.01Z" transform="translate(-165.999 -203.174)" fill="#c720a0"/>
    <path id="Path_30" data-name="Path 30" d="M176.306,213.844a1.714,1.714,0,0,1-.558-.688,3.263,3.263,0,0,1-.262-.926c-.038-.28.025-1.569.042-2.442h.007v-.6c0-3.256-1.163-5.9-5.287-5.9-.617,0-4.087.01-4.53.018v3.171c0,.013,3.888.009,3.921.009,1.474,0,2.67.015,2.7,1.984-.876.006-1.432.054-2.4.145a11.678,11.678,0,0,0-2.818.6,5.212,5.212,0,0,0-2.076,1.3,3.159,3.159,0,0,0-.807,2.275,3.505,3.505,0,0,0,.463,1.866,3.832,3.832,0,0,0,1.164,1.216,4.753,4.753,0,0,0,1.534.662,6.915,6.915,0,0,0,1.6.2,7.25,7.25,0,0,0,3.6-.723,10.7,10.7,0,0,1-1.069-2.137,3.821,3.821,0,0,1-1.895.453,3.739,3.739,0,0,1-.794-.079,2.289,2.289,0,0,1-.714-.264,1.519,1.519,0,0,1-.516-.49,1.354,1.354,0,0,1-.2-.754c0-.476.4-1.114,1.667-1.53a6.709,6.709,0,0,1,1.561-.291,11.032,11.032,0,0,1,1.164-.066h.545c-.285,4.571,2.083,5.954,4.88,5.779V214.1A1.581,1.581,0,0,1,176.306,213.844Z" transform="translate(-120.246 -203.233)" fill="#c720a0"/>
  </g>
</svg>
