<svg xmlns="http://www.w3.org/2000/svg" width="26.821" height="30.17" viewBox="0 0 26.821 30.17">
  <g id="shopee" transform="translate(0)">
    <path id="Path_41" data-name="Path 41" d="M21.583,22.62h6.1a13.221,13.221,0,0,1,1.588-5.357c1.094-1.9,2.65-3.063,4.408-3.063s3.306,1.175,4.408,3.063a13.182,13.182,0,0,1,1.588,5.357h6.094a1.282,1.282,0,0,1,1.313,1.313L45.862,41.007A3.3,3.3,0,0,1,42.41,44.37H24.954A3.331,3.331,0,0,1,21.5,41.007L20.27,23.941a1.294,1.294,0,0,1,1.313-1.321Zm7.626,0h8.93a11.533,11.533,0,0,0-1.378-4.595c-.81-1.418-1.912-2.3-3.079-2.3s-2.269.883-3.1,2.31A11.624,11.624,0,0,0,29.209,22.62Z" transform="translate(-20.268 -14.2)" fill="#ebebeb"/>
    <path id="Path_42" data-name="Path 42" d="M128.026,174.756a.618.618,0,1,1,.7-1.021c.178.122.365.243.567.365a7.679,7.679,0,0,0,3.833,1.3,2.632,2.632,0,0,0,2.3-1.126h0c.032-.057.065-.089.073-.113a3.048,3.048,0,0,0,.324-.729,2.191,2.191,0,0,0-.081-1.491,3.13,3.13,0,0,0-1.3-1.37h0a6.3,6.3,0,0,0-1.637-.681,6.568,6.568,0,0,1-3.566-2.026,3.123,3.123,0,0,1-.008-3.6,3.494,3.494,0,0,1,2.925-1.645,7.644,7.644,0,0,1,3.971.908.62.62,0,0,1-.567,1.1,6.368,6.368,0,0,0-3.314-.778,2.284,2.284,0,0,0-1.921,1,1.99,1.99,0,0,0-.089,2.261,5.458,5.458,0,0,0,2.909,1.564,8.024,8.024,0,0,1,1.945.818h0a4.312,4.312,0,0,1,1.791,1.937,3.433,3.433,0,0,1,.146,2.326,4.036,4.036,0,0,1-.462,1.037c-.049.073-.081.13-.105.17h0a3.841,3.841,0,0,1-3.323,1.669,8.859,8.859,0,0,1-4.481-1.475A7.225,7.225,0,0,1,128.026,174.756Z" transform="translate(-119.045 -150.574)" fill="#2e2e2e"/>
  </g>
</svg>
